<?xml version="1.0" encoding="UTF-8"?>
<svg id="Lager_1" xmlns="http://www.w3.org/2000/svg" xmlns:xlink="http://www.w3.org/1999/xlink" version="1.1" viewBox="0 0 1024 1024">
  <!-- Generator: Adobe Illustrator 29.8.1, SVG Export Plug-In . SVG Version: 2.1.1 Build 2)  -->
  <defs>
    <style>
      .st0 {
        fill: #338dca;
      }

      .st1 {
        stroke: url(#Namnlös_övertoning_55);
      }

      .st1, .st2 {
        fill: none;
        stroke-miterlimit: 10;
        stroke-width: 69.9px;
      }

      .st2 {
        stroke: url(#Namnlös_övertoning_58);
      }

      .st3 {
        fill: url(#Namnlös_övertoning_551);
      }

      .st4 {
        fill: url(#Namnlös_övertoning_581);
      }
    </style>
    <linearGradient id="Namnlös_övertoning_55" data-name="Namnlös övertoning 55" x1="53.6" y1="406.7" x2="897.5" y2="406.7" gradientUnits="userSpaceOnUse">
      <stop offset=".3" stop-color="#338dca"/>
      <stop offset=".7" stop-color="#2b78ac" stop-opacity="0"/>
    </linearGradient>
    <linearGradient id="Namnlös_övertoning_551" data-name="Namnlös övertoning 55" x1="53.6" y1="692.9" x2="897.5" y2="692.9" xlink:href="#Namnlös_övertoning_55"/>
    <linearGradient id="Namnlös_övertoning_58" data-name="Namnlös övertoning 58" x1="126.5" y1="617.3" x2="970.4" y2="617.3" gradientUnits="userSpaceOnUse">
      <stop offset=".2" stop-color="#2b78ac" stop-opacity="0"/>
      <stop offset=".8" stop-color="#338dca"/>
    </linearGradient>
    <linearGradient id="Namnlös_övertoning_581" data-name="Namnlös övertoning 58" x1="126.5" y1="331.1" x2="970.4" y2="331.1" xlink:href="#Namnlös_övertoning_58"/>
  </defs>
  <path class="st0" d="M438.4,770.7v-51c-34.7,10-74.7,1.8-92.4-32.2-4.9-9.4-6.9-20.4-13.6-29.2s-26.6-20.9-27.7-28.3c-1.8-12.4,22.4-6.3,28.3-4.1,26.8,9.8,27,33.3,45.6,46.6,18.8,13.5,39.5,14.1,60.6,5.3,2.9-12.6,5.6-25.2,15.6-34.3.4-2.3-.3-1.3-1.5-1.8-6.6-2.4-18.3-3-26-4.8-43.2-10.2-74.7-34.3-88.1-77.6-12.7-40.8-9.8-98.7,21-131.1-5.7-17.7-8-35.8-5-54.3,1-6.5,4.1-23.5,12.3-23.8,16.5-.6,41.5,12.8,55.8,20.9,3.9,2.2,9.6,7.5,13.1,8.8,4.9,1.9,18.3-3.2,24.7-4.3,41-7.1,83.4-4.6,123.6,5.1,16.7-9.4,32.7-21.2,51.4-26.6,23.8-6.9,28.4-5.4,32.4,19.8,2.8,17.8.8,36.3-4.9,53.3,4.5,6.7,9.5,12.1,13.5,19.3,20.3,37,18.4,98.3-2.2,135-22.1,39.4-63.9,55.6-107,60.4,2.8,4.6,6.7,8.5,9,13.5,13.7,30,2,80.6,6.5,113.2,3.7,27.6,46.3,5.9,59.9-1.4,140.8-75.2,192.1-257.2,107.3-394.1-102.5-165.5-347.3-176.4-464.1-20.8-104.4,139.1-51.7,349.6,106.5,421.2,11.3,5.1,41.9,18.2,45.4-2.6Z"/>
  <g>
    <path class="st1" d="M868.1,283C741.7,86.3,479.7,29.4,283,155.9c-196.7,126.5-253.6,388.4-127.1,585.1"/>
    <polygon class="st3" points=".4 696.4 147.9 728.5 179.9 581 228.9 657.2 196.8 804.7 49.4 772.6 .4 696.4"/>
  </g>
  <g>
    <path class="st2" d="M155.9,741c126.5,196.7,388.4,253.6,585.1,127.1,196.7-126.5,253.6-388.4,127.1-585.1"/>
    <polygon class="st4" points="1023.6 327.6 876.1 295.5 844.1 443 795.1 366.8 827.2 219.3 974.6 251.4 1023.6 327.6"/>
  </g>
</svg>