<?xml version="1.0" encoding="UTF-8"?>
<svg id="Lager_1" data-name="Lager 1" xmlns="http://www.w3.org/2000/svg" xmlns:xlink="http://www.w3.org/1999/xlink" viewBox="0 0 1024 1024">
  <defs>
    <style>
      .cls-1 {
        fill: #338dca;
      }

      .cls-2 {
        fill: url(#Namnlös_övertoning_55-2);
      }

      .cls-3 {
        fill: url(#Namnlös_övertoning_58-2);
      }

      .cls-4 {
        stroke: url(#Namnlös_övertoning_55);
      }

      .cls-4, .cls-5 {
        fill: none;
        stroke-miterlimit: 10;
        stroke-width: 69.93px;
      }

      .cls-5 {
        stroke: url(#Namnlös_övertoning_58);
      }
    </style>
    <linearGradient id="Namnlös_övertoning_55" data-name="Namnlös övertoning 55" x1="53.59" y1="406.74" x2="897.53" y2="406.74" gradientUnits="userSpaceOnUse">
      <stop offset=".25" stop-color="#338dca"/>
      <stop offset=".75" stop-color="#2b78ac" stop-opacity="0"/>
    </linearGradient>
    <linearGradient id="Namnlös_övertoning_55-2" data-name="Namnlös övertoning 55" x1="53.59" y1="692.85" x2="897.53" y2="692.85" xlink:href="#Namnlös_övertoning_55"/>
    <linearGradient id="Namnlös_övertoning_58" data-name="Namnlös övertoning 58" x1="126.47" y1="617.26" x2="970.41" y2="617.26" gradientUnits="userSpaceOnUse">
      <stop offset=".25" stop-color="#2b78ac" stop-opacity="0"/>
      <stop offset=".75" stop-color="#338dca"/>
    </linearGradient>
    <linearGradient id="Namnlös_övertoning_58-2" data-name="Namnlös övertoning 58" x1="126.47" y1="331.15" x2="970.41" y2="331.15" xlink:href="#Namnlös_övertoning_58"/>
  </defs>
  <path class="cls-1" d="M438.35,770.75v-51.04c-34.7,9.96-74.69,1.8-92.39-32.18-4.92-9.44-6.94-20.38-13.62-29.19-5.87-7.74-26.61-20.93-27.7-28.35-1.83-12.4,22.38-6.27,28.32-4.1,26.82,9.78,26.96,33.27,45.6,46.6,18.85,13.48,39.51,14.1,60.64,5.25,2.93-12.58,5.62-25.25,15.61-34.33.35-2.26-.28-1.32-1.49-1.76-6.63-2.42-18.28-2.99-25.95-4.8-43.22-10.17-74.66-34.32-88.08-77.65-12.66-40.85-9.83-98.74,21.01-131.13-5.72-17.74-7.98-35.82-5.05-54.34,1.03-6.52,4.1-23.46,12.26-23.75,16.53-.6,41.54,12.76,55.83,20.91,3.87,2.21,9.61,7.46,13.14,8.82,4.91,1.88,18.33-3.18,24.74-4.29,40.96-7.11,83.41-4.56,123.59,5.13,16.69-9.44,32.69-21.24,51.39-26.62,23.82-6.86,28.42-5.37,32.36,19.79,2.8,17.82.83,36.32-4.92,53.33,4.55,6.66,9.52,12.14,13.48,19.34,20.33,37.03,18.36,98.35-2.2,135.05-22.08,39.41-63.89,55.59-107.03,60.36,2.8,4.63,6.71,8.5,8.99,13.5,13.66,29.96,2.04,80.55,6.47,113.16,3.75,27.58,46.29,5.91,59.91-1.36,140.76-75.15,192.06-257.17,107.28-394.12-102.46-165.51-347.27-176.38-464.07-20.83-104.43,139.08-51.74,349.56,106.51,421.2,11.34,5.13,41.94,18.23,45.39-2.59Z"/>
  <g>
    <path class="cls-4" d="M868.13,283.01C741.66,86.33,479.7,29.41,283.01,155.87c-196.68,126.47-253.61,388.43-127.14,585.11"/>
    <polygon class="cls-2" points=".39 696.43 147.86 728.53 179.87 581.03 228.86 657.23 196.82 804.67 49.38 772.63 .39 696.43"/>
  </g>
  <g>
    <path class="cls-5" d="M155.87,740.99c126.47,196.68,388.43,253.61,585.11,127.14,196.68-126.47,253.61-388.43,127.14-585.11"/>
    <polygon class="cls-3" points="1023.61 327.57 876.14 295.47 844.13 442.97 795.14 366.77 827.18 219.33 974.62 251.37 1023.61 327.57"/>
  </g>
</svg>